#!OML:ASF H:\ManfredObstacles\Project 1\Capture day 2\Session 1\male.ASF
:FULLY-SPECIFIED
:DEGREES
465
root 2.59842 16.1287 -29.665 -165.897 3.5709 -176.452
lowerback 0.286422 3.4555 1.1921
upperback 1.88415 4.64328 0.502186
thorax 1.82367 2.35472 -0.0870072
lowerneck -39.207 -1.41783 -0.0814376
upperneck 35.8519 -3.42639 0.764568
head 20.9168 -1.40304 -0.657794
rclavicle -3.29486e-014 1.2921e-014
rhumerus -32.9346 18.7483 -97.5917
rradius 92.6881
rwrist 10.9231
rhand -15.0883 -3.93978
rfingers 7.12502
rthumb 11.0796 -33.6273
lclavicle -3.29486e-014 1.2921e-014
lhumerus -65.2202 -22.3845 93.3309
lradius 101.755
lwrist -19.375
lhand -18.2785 9.93499
lfingers 7.12502
lthumb 8.0015 39.7635
rfemur -3.91699 5.5715 28.027
rtibia 27.7316
rfoot 8.5575 -5.68156
rtoes -34.6175
lfemur -38.7894 0.667655 -15.4715
ltibia 66.8744
lfoot 6.86372 23.8552
ltoes -3.79167
466
root 2.60005 16.1849 -29.9742 -165.717 3.30194 -176.755
lowerback -0.0494471 3.70783 0.927161
upperback 1.72587 4.96983 0.258568
thorax 1.85226 2.50991 -0.166513
lowerneck -39.4755 -1.8477 -0.317446
upperneck 35.9474 -4.11041 1.13059
head 21.0703 -1.61934 -0.626055
rclavicle 2.07233e-014 2.18663e-015
rhumerus -32.5138 19.4067 -97.5736
rradius 93.8251
rwrist 10.7335
rhand -14.9093 -3.822
rfingers 7.12502
rthumb 11.2522 -33.5002
lclavicle 2.07233e-014 2.18663e-015
lhumerus -65.8107 -23.095 93.1825
lradius 102.313
lwrist -19.2496
lhand -18.442 9.58127
lfingers 7.12502
lthumb 7.84377 39.4158
rfemur -2.58409 5.71253 27.7879
rtibia 26.2638
rfoot 11.0105 -5.50847
rtoes -34.4039
lfemur -39.3293 -0.12003 -15.6833
ltibia 64.0171
lfoot 6.68741 24.1872
ltoes -3.82298
467
root 2.60098 16.2393 -30.2887 -165.504 3.00524 -177.094
lowerback -0.444912 3.92905 0.640584
upperback 1.54577 5.25778 -0.00555498
thorax 1.89117 2.64602 -0.25011
lowerneck -39.6725 -2.26802 -0.549841
upperneck 36.004 -4.78071 1.4947
head 21.1887 -1.831 -0.591811
rclavicle -2.55935e-015 5.91384e-015
rhumerus -32.2575 20.0325 -97.5419
rradius 94.9361
rwrist 10.4356
rhand -14.742 -3.74563
rfingers 7.12502
rthumb 11.4136 -33.415
lclavicle -2.55935e-015 5.91384e-015
lhumerus -66.4046 -23.7932 93.0316
lradius 102.867
lwrist -19.2724
lhand -18.6249 9.2844
lfingers 7.12502
lthumb 7.66723 39.1254
rfemur -1.26287 5.86622 27.5266
rtibia 24.7677
rfoot 13.5453 -5.4488
rtoes -34.0982
lfemur -39.7463 -0.931611 -15.9133
ltibia 60.9321
lfoot 6.51748 24.2718
ltoes -3.85667
468
root 2.60164 16.2891 -30.6055 -165.257 2.6885 -177.465
lowerback -0.864847 4.128 0.33818
upperback 1.32295 5.52029 -0.291276
thorax 1.90006 2.76998 -0.345542
lowerneck -39.7314 -2.67111 -0.775929
upperneck 36.028 -5.43201 1.85472
head 21.2586 -2.03938 -0.554812
rclavicle -1.54928e-014 -1.26725e-014
rhumerus -32.1957 20.5968 -97.5029
rradius 96.0279
rwrist 10.0626
rhand -14.5787 -3.66491
rfingers 7.12502
rthumb 11.5711 -33.3255
lclavicle -1.54928e-014 -1.26725e-014
lhumerus -67.0333 -24.5022 92.9024
lradius 103.428
lwrist -19.368
lhand -18.838 9.0442
lfingers 7.12502
lthumb 7.46152 38.8926
rfemur 0.0123811 6.00993 27.2499
rtibia 23.3048
rfoot 16.0956 -5.51347
rtoes -33.6262
lfemur -40.0627 -1.74061 -16.1553
ltibia 57.6697
lfoot 6.3408 24.033
ltoes -3.96979
469
root 2.60144 16.3342 -30.9257 -164.983 2.38481 -177.857
lowerback -1.36019 4.30216 0.0106828
upperback 1.10278 5.7564 -0.583336
thorax 1.95163 2.88192 -0.426041
lowerneck -39.7479 -3.0554 -0.999229
upperneck 36.0377 -6.05248 2.20307
head 21.3143 -2.23945 -0.515804
rclavicle -3.77256e-014 1.05107e-014
rhumerus -32.2425 21.1518 -97.4322
rradius 97.0927
rwrist 9.61885
rhand -14.4154 -3.57675
rfingers 7.12502
rthumb 11.7285 -33.2284
lclavicle -3.77256e-014 1.05107e-014
lhumerus -67.623 -25.1839 92.7817
lradius 103.968
lwrist -19.5024
lhand -19.1095 8.84712
lfingers 7.12502
lthumb 7.19942 38.7047
rfemur 1.21777 6.0896 26.9448
rtibia 21.9461
rfoot 18.576 -5.63478
rtoes -32.9117
lfemur -40.27 -2.52274 -16.4073
ltibia 54.2807
lfoot 6.1202 23.474
ltoes -4.21083
470
root 2.60057 16.3724 -31.2473 -164.697 2.08063 -178.248
lowerback -1.88328 4.43999 -0.31956
upperback 0.86617 5.95135 -0.878801
thorax 2.0012 2.97493 -0.506292
lowerneck -39.6844 -3.38642 -1.17394
upperneck 36.0463 -6.61532 2.51709
head 21.3497 -2.42059 -0.486362
rclavicle 1.72974e-014 -6.7711e-015
rhumerus -32.4304 21.7009 -97.3811
rradius 98.1314
rwrist 9.15895
rhand -14.2578 -3.48084
rfingers 7.12502
rthumb 11.8805 -33.1238
lclavicle 1.72974e-014 -6.7711e-015
lhumerus -68.2165 -25.8174 92.6691
lradius 104.507
lwrist -19.582
lhand -19.4281 8.67044
lfingers 7.12502
lthumb 6.89186 38.5383
rfemur 2.32878 6.05543 26.6326
rtibia 20.7677
rfoot 20.9302 -5.81579
rtoes -32.0278
lfemur -40.3758 -3.27345 -16.647
ltibia 50.8371
lfoot 5.84371 22.5984
ltoes -4.63507
471
root 2.5984 16.4032 -31.5704 -164.401 1.79578 -178.63
lowerback -2.44808 4.54942 -0.654191
upperback 0.647184 6.1169 -1.15785
thorax 2.08938 3.05474 -0.56231
lowerneck -39.6524 -3.68725 -1.33669
upperneck 36.0657 -7.12373 2.79637
head 21.3999 -2.58499 -0.462328
rclavicle 3.967e-014 -1.83379e-014
rhumerus -32.674 22.2532 -97.2932
rradius 99.1361
rwrist 8.71112
rhand -14.1052 -3.37774
rfingers 7.12502
rthumb 12.0277 -33.0121
lclavicle 3.967e-014 -1.83379e-014
lhumerus -68.7339 -26.3843 92.5705
lradius 105.035
lwrist -19.6199
lhand -19.7807 8.51368
lfingers 7.12502
lthumb 6.55148 38.3923
rfemur 3.32153 5.87496 26.3001
rtibia 19.8142
rfoot 23.1271 -6.01807
rtoes -30.8662
lfemur -40.389 -3.97077 -16.8789
ltibia 47.4176
lfoot 5.50747 21.4726
ltoes -5.32086
472
root 2.59478 16.4255 -31.8932 -164.113 1.53061 -178.963
lowerback -3.02498 4.61331 -0.98358
upperback 0.490078 6.22922 -1.38628
thorax 2.24208 3.10857 -0.566388
lowerneck -39.8054 -3.93264 -1.46086
upperneck 36.1304 -7.53728 3.01088
head 21.5192 -2.71232 -0.454006
rclavicle -6.38596e-014 3.27995e-014
rhumerus -32.8549 22.8734 -97.1412
rradius 100.078
rwrist 8.28996
rhand -13.9481 -3.27012
rfingers 7.12502
rthumb 12.1792 -32.8956
lclavicle -6.38596e-014 3.27995e-014
lhumerus -69.0754 -26.8106 92.4568
lradius 105.542
lwrist -19.6064
lhand -20.1821 8.3568
lfingers 7.12502
lthumb 6.16405 38.2471
rfemur 4.19404 5.56225 25.9913
rtibia 19.1174
rfoot 25.1737 -6.21322
rtoes -29.4557
lfemur -40.3226 -4.61116 -17.0608
ltibia 44.1213
lfoot 5.1662 20.1837
ltoes -6.22316
473
root 2.58897 16.4385 -32.215 -163.861 1.2936 -179.214
lowerback -3.5536 4.67078 -1.23751
upperback 0.353027 6.33383 -1.56904
thorax 2.39083 3.15957 -0.567844
lowerneck -40.0054 -4.1664 -1.60132
upperneck 36.2133 -7.90531 3.19232
head 21.6618 -2.82835 -0.44832
rclavicle -5.76476e-015 -1.39149e-014
rhumerus -33.0752 23.4419 -96.9504
rradius 100.967
rwrist 7.95498
rhand -13.7938 -3.15043
rfingers 7.12502
rthumb 12.3279 -32.767
lclavicle -5.76476e-015 -1.39149e-014
lhumerus -69.3325 -27.1742 92.3918
lradius 106.045
lwrist -19.5644
lhand -20.6075 8.22391
lfingers 7.12502
lthumb 5.75332 38.1258
rfemur 4.96181 5.15809 25.7329
rtibia 18.6773
rfoot 27.13 -6.37658
rtoes -27.6565
lfemur -40.1803 -5.19947 -17.1621
ltibia 41.0579
lfoot 4.90043 18.8294
ltoes -7.1751
474
root 2.58097 16.4412 -32.5357 -163.678 1.10183 -179.36
lowerback -4.01475 4.73595 -1.39616
upperback 0.249087 6.44476 -1.69751
thorax 2.53973 3.21425 -0.569086
lowerneck -40.2361 -4.39112 -1.7617
upperneck 36.3073 -8.23257 3.34919
head 21.8197 -2.93453 -0.441253
rclavicle -4.56956e-014 1.60022e-014
rhumerus -33.3243 23.9301 -96.7329
rradius 101.78
rwrist 7.66298
rhand -13.6622 -2.98502
rfingers 7.12502
rthumb 12.4548 -32.5939
lclavicle -4.56956e-014 1.60022e-014
lhumerus -69.4995 -27.4941 92.3879
lradius 106.542
lwrist -19.4831
lhand -21.0521 8.13758
lfingers 7.12502
lthumb 5.32409 38.0507
rfemur 5.64953 4.71762 25.5499
rtibia 18.5107
rfoot 29.0264 -6.48688
rtoes -25.7001
lfemur -39.9506 -5.74171 -17.1605
ltibia 38.3406
lfoot 4.8457 17.4824
ltoes -8.05069
475
root 2.57074 16.4333 -32.8552 -163.578 0.936701 -179.383
lowerback -4.40137 4.80817 -1.43314
upperback 0.187446 6.55598 -1.76219
thorax 2.69632 3.26923 -0.575317
lowerneck -40.5127 -4.61915 -1.95638
upperneck 36.412 -8.52869 3.48684
head 21.9982 -3.03483 -0.430586
rclavicle -3.23025e-014 -6.4605e-015
rhumerus -33.593 24.3223 -96.4921
rradius 102.487
rwrist 7.44276
rhand -13.5805 -2.77326
rfingers 7.12502
rthumb 12.5335 -32.3774
lclavicle -3.23025e-014 -6.4605e-015
lhumerus -69.5591 -27.7704 92.4503
lradius 107.029
lwrist -19.3754
lhand -21.4995 8.12464
lfingers 7.12502
lthumb 4.89202 38.0482
rfemur 6.25649 4.28748 25.4715
rtibia 18.6326
rfoot 30.8684 -6.55172
rtoes -23.6773
lfemur -39.6603 -6.25636 -17.0352
ltibia 36.078
lfoot 5.05841 16.1928
ltoes -8.68023
